<?xml version="1.0" encoding="UTF-8" standalone="no"?>
<svg
   xmlns:dc="http://purl.org/dc/elements/1.1/"
   xmlns:cc="http://creativecommons.org/ns#"
   xmlns:rdf="http://www.w3.org/1999/02/22-rdf-syntax-ns#"
   xmlns:svg="http://www.w3.org/2000/svg"
   xmlns="http://www.w3.org/2000/svg"
   xmlns:sodipodi="http://sodipodi.sourceforge.net/DTD/sodipodi-0.dtd"
   xmlns:inkscape="http://www.inkscape.org/namespaces/inkscape"
   version="1.1"
   viewBox="0 0 126.28609 109"
   stroke-miterlimit="10"
   id="svg25"
   sodipodi:docname="col_war01.svg"
   width="126.28609"
   height="109"
   style="fill:none;stroke:none;stroke-linecap:square;stroke-miterlimit:10"
   inkscape:version="0.92.3 (2405546, 2018-03-11)">
  <metadata
     id="metadata31">
    <rdf:RDF>
      <cc:Work
         rdf:about="">
        <dc:format>image/svg+xml</dc:format>
        <dc:type
           rdf:resource="http://purl.org/dc/dcmitype/StillImage" />
      </cc:Work>
    </rdf:RDF>
  </metadata>
  <defs
     id="defs29" />
  <sodipodi:namedview
     pagecolor="#ffffff"
     bordercolor="#666666"
     borderopacity="1"
     objecttolerance="10"
     gridtolerance="10"
     guidetolerance="10"
     inkscape:pageopacity="0"
     inkscape:pageshadow="2"
     inkscape:window-width="1366"
     inkscape:window-height="745"
     id="namedview27"
     showgrid="false"
     inkscape:zoom="3.0405152"
     inkscape:cx="63.96717"
     inkscape:cy="38.630035"
     inkscape:window-x="-8"
     inkscape:window-y="-8"
     inkscape:window-maximized="1"
     inkscape:current-layer="svg25" />
  <clipPath
     id="p.0">
    <path
       d="M 0,0 H 126.55905 V 109.76903 H 0 Z"
       id="path2"
       inkscape:connector-curvature="0"
       style="clip-rule:nonzero" />
  </clipPath>
  <path
     style="fill:#cfe2f3;fill-rule:evenodd"
     inkscape:connector-curvature="0"
     id="path7"
     d="m 47.998688,0.5 h 28.7874 v 28.787401 h -28.7874 z" />
  <path
     style="fill-rule:evenodd;stroke:#000000;stroke-width:1;stroke-linecap:butt;stroke-linejoin:round"
     inkscape:connector-curvature="0"
     id="path9"
     d="m 47.998688,0.5 h 28.7874 v 28.787401 h -28.7874 z" />
  <path
     style="fill:#cfe2f3;fill-rule:evenodd"
     inkscape:connector-curvature="0"
     id="path11"
     d="m 96.99869,46.1063 h 28.7874 v 28.7874 h -28.7874 z" />
  <path
     style="fill-rule:evenodd;stroke:#000000;stroke-width:1;stroke-linecap:butt;stroke-linejoin:round"
     inkscape:connector-curvature="0"
     id="path13"
     d="m 96.99869,46.1063 h 28.7874 v 28.7874 h -28.7874 z" />
  <path
     style="fill:#cfe2f3;fill-rule:evenodd"
     inkscape:connector-curvature="0"
     id="path15"
     d="M 0.5,46.19029 H 29.287401 V 74.977693 H 0.5 Z" />
  <path
     style="fill-rule:evenodd;stroke:#000000;stroke-width:1;stroke-linecap:butt;stroke-linejoin:round"
     inkscape:connector-curvature="0"
     id="path17"
     d="M 0.5,46.19029 H 29.287401 V 74.977693 H 0.5 Z" />
  <path
     style="fill:#cfe2f3;fill-rule:evenodd"
     inkscape:connector-curvature="0"
     id="path19"
     d="m 14.379265,60.5 v 0 c 0,-26.509666 21.490334,-48 48,-48 v 0 c 12.730392,0 24.939377,5.057129 33.941124,14.058874 9.001751,9.001745 14.058881,21.210733 14.058881,33.941124 v 0 C 110.37927,87.009664 88.888931,108.5 62.379265,108.5 v 0 c -26.509666,0 -48,-21.490336 -48,-48.000002 z" />
  <path
     style="fill-rule:evenodd;stroke:#000000;stroke-width:1;stroke-linecap:butt;stroke-linejoin:round"
     inkscape:connector-curvature="0"
     id="path21"
     d="m 14.379265,60.5 v 0 c 0,-26.509666 21.490334,-48 48,-48 v 0 c 12.730392,0 24.939377,5.057129 33.941124,14.058874 9.001751,9.001745 14.058881,21.210733 14.058881,33.941124 v 0 C 110.37927,87.009664 88.888931,108.5 62.379265,108.5 v 0 c -26.509666,0 -48,-21.490336 -48,-48.000002 z" />
</svg>
