<svg version="1.1" viewBox="0.0 0.0 126.55905511811024 109.76902887139107" fill="none" stroke="none" stroke-linecap="square" stroke-miterlimit="10" xmlns:xlink="http://www.w3.org/1999/xlink" xmlns="http://www.w3.org/2000/svg"><clipPath id="p.0"><path d="m0 0l126.55905 0l0 109.76903l-126.55905 0l0 -109.76903z" clip-rule="nonzero"/></clipPath><g clip-path="url(#p.0)"><path fill="#000000" fill-opacity="0.0" d="m0 0l126.55905 0l0 109.76903l-126.55905 0z" fill-rule="evenodd"/><path fill="#cfe2f3" d="m47.498688 0l28.7874 0l0 28.787401l-28.7874 0z" fill-rule="evenodd"/><path stroke="#000000" stroke-width="1.0" stroke-linejoin="round" stroke-linecap="butt" d="m47.498688 0l28.7874 0l0 28.787401l-28.7874 0z" fill-rule="evenodd"/><path fill="#cfe2f3" d="m96.49869 45.6063l28.7874 0l0 28.7874l-28.7874 0z" fill-rule="evenodd"/><path stroke="#000000" stroke-width="1.0" stroke-linejoin="round" stroke-linecap="butt" d="m96.49869 45.6063l28.7874 0l0 28.7874l-28.7874 0z" fill-rule="evenodd"/><path fill="#cfe2f3" d="m0 45.69029l28.787401 0l0 28.787403l-28.787401 0z" fill-rule="evenodd"/><path stroke="#000000" stroke-width="1.0" stroke-linejoin="round" stroke-linecap="butt" d="m0 45.69029l28.787401 0l0 28.787403l-28.787401 0z" fill-rule="evenodd"/><path fill="#cfe2f3" d="m13.879265 60.0l0 0c0 -26.509666 21.490334 -48.0 48.0 -48.0l0 0c12.730392 0 24.939377 5.057129 33.941124 14.058874c9.001747 9.001745 14.058876 21.210733 14.058876 33.941124l0 0c0 26.509666 -21.490334 48.0 -48.0 48.0l0 0c-26.509666 0 -48.0 -21.490334 -48.0 -48.0z" fill-rule="evenodd"/><path stroke="#000000" stroke-width="1.0" stroke-linejoin="round" stroke-linecap="butt" d="m13.879265 60.0l0 0c0 -26.509666 21.490334 -48.0 48.0 -48.0l0 0c12.730392 0 24.939377 5.057129 33.941124 14.058874c9.001747 9.001745 14.058876 21.210733 14.058876 33.941124l0 0c0 26.509666 -21.490334 48.0 -48.0 48.0l0 0c-26.509666 0 -48.0 -21.490334 -48.0 -48.0z" fill-rule="evenodd"/></g></svg>